<svg width="1600" height="900" viewBox="0 0 1600 900" fill="none" xmlns="http://www.w3.org/2000/svg">
  <rect width="1600" height="900" rx="48" fill="#EEF5F6"/>
  <rect x="96" y="96" width="1408" height="708" rx="40" fill="#FFFDF9" stroke="#D9E8E7" stroke-width="4"/>
  <circle cx="1280" cy="188" r="138" fill="#FFE0BC"/>
  <path d="M144 604C260 548 364 544 474 592C612 652 738 666 882 620C1014 578 1132 526 1456 608V704H144V604Z" fill="#9CD7D0"/>
  <path d="M144 664C300 628 430 630 556 668C696 710 854 714 1016 674C1186 632 1328 632 1456 664V704H144V664Z" fill="#24404E"/>
  <path d="M234 564C356 490 468 496 574 548" stroke="#7FBFB4" stroke-width="18" stroke-linecap="round"/>
  <path d="M858 566C924 520 1008 520 1082 556" stroke="#FFF7EE" stroke-width="18" stroke-linecap="round"/>
  <rect x="938" y="358" width="220" height="80" rx="40" fill="#FFF7EE"/>
  <path d="M976 396H1092" stroke="#24404E" stroke-width="12" stroke-linecap="round"/>
  <circle cx="1118" cy="400" r="30" fill="#FF8953"/>
  <text x="146" y="174" fill="#13222C" font-family="Pretendard, Arial, sans-serif" font-size="58" font-weight="800">Bali Left Bank</text>
  <text x="146" y="758" fill="#617684" font-family="Pretendard, Arial, sans-serif" font-size="30" font-weight="600">페리로 짧게 건너가 강변 분위기만 챙겨도 충분한 느슨한 리버사이드 코스</text>
</svg>
