<svg width="1600" height="900" viewBox="0 0 1600 900" fill="none" xmlns="http://www.w3.org/2000/svg">
  <rect width="1600" height="900" rx="48" fill="#F1EFE6"/>
  <rect x="104" y="104" width="1392" height="692" rx="40" fill="#FFFDF9" stroke="#E2D8CA" stroke-width="4"/>
  <circle cx="1276" cy="188" r="136" fill="#CFECE5"/>
  <path d="M150 590C254 530 364 520 472 560C594 606 694 620 824 590C932 566 1034 518 1140 520C1258 522 1364 560 1450 610V700H150V590Z" fill="#A7D8CB"/>
  <path d="M150 636C274 590 388 594 506 634C640 678 766 690 924 648C1062 610 1204 602 1450 656V700H150V636Z" fill="#24404E"/>
  <rect x="214" y="232" width="620" height="334" rx="28" fill="#FFF8F0"/>
  <path d="M248 532V302C248 266.654 276.654 238 312 238H736C771.346 238 800 266.654 800 302V532" stroke="#24404E" stroke-width="18"/>
  <path d="M248 346H800" stroke="#24404E" stroke-width="12" stroke-opacity="0.14"/>
  <path d="M248 404H800" stroke="#24404E" stroke-width="12" stroke-opacity="0.14"/>
  <path d="M862 244C922 198 988 198 1054 230" stroke="#FF8953" stroke-width="14" stroke-linecap="round" stroke-dasharray="10 18"/>
  <rect x="938" y="252" width="388" height="254" rx="28" fill="#F5EEE5"/>
  <circle cx="1128" cy="378" r="94" fill="#0F8A7A"/>
  <circle cx="1128" cy="378" r="44" fill="#F5EEE5"/>
  <text x="144" y="176" fill="#13222C" font-family="Pretendard, Arial, sans-serif" font-size="58" font-weight="800">Beitou Hot Spring Museum</text>
  <text x="144" y="758" fill="#617684" font-family="Pretendard, Arial, sans-serif" font-size="30" font-weight="600">온천 박물관과 공원 풍경이 묶여 있어 짧고 안정적인 둘째 날 첫 장면</text>
</svg>
