<svg width="1600" height="900" viewBox="0 0 1600 900" fill="none" xmlns="http://www.w3.org/2000/svg">
  <rect width="1600" height="900" rx="48" fill="#F6F2EC"/>
  <rect x="100" y="100" width="1400" height="700" rx="40" fill="#FFFDF9" stroke="#E5DACD" stroke-width="4"/>
  <circle cx="1278" cy="188" r="142" fill="#FFCAA4"/>
  <path d="M144 612C280 562 398 560 548 616C706 674 870 682 1022 636C1184 586 1312 584 1456 620V706H144V612Z" fill="#6BA9C8"/>
  <path d="M144 672C316 636 448 640 586 678C728 718 884 724 1048 686C1220 646 1338 648 1456 680V706H144V672Z" fill="#1E3442"/>
  <path d="M1020 606V292C1020 261.072 1045.07 236 1076 236H1092C1122.93 236 1148 261.072 1148 292V606" stroke="#FFF8F0" stroke-width="24" stroke-linecap="round"/>
  <path d="M1032 600L1260 352" stroke="#FFF8F0" stroke-width="22" stroke-linecap="round"/>
  <path d="M1260 352L1462 600" stroke="#FFF8F0" stroke-width="22" stroke-linecap="round"/>
  <rect x="248" y="542" width="386" height="68" rx="34" fill="#FFF7EE"/>
  <text x="146" y="174" fill="#13222C" font-family="Pretendard, Arial, sans-serif" font-size="58" font-weight="800">Fisherman's Wharf</text>
  <text x="146" y="758" fill="#617684" font-family="Pretendard, Arial, sans-serif" font-size="30" font-weight="600">연인의 다리 실루엣이 강해서 sunset만 보고 와도 마지막 날 장면이 완성되는 포인트</text>
</svg>
