<svg width="1600" height="900" viewBox="0 0 1600 900" fill="none" xmlns="http://www.w3.org/2000/svg">
  <rect width="1600" height="900" rx="48" fill="#F8F1E8"/>
  <rect x="88" y="88" width="1424" height="724" rx="42" fill="#FFFDF9" stroke="#E7DACB" stroke-width="4"/>
  <rect x="132" y="138" width="664" height="588" rx="36" fill="#1E313E"/>
  <circle cx="636" cy="228" r="110" fill="#FFAE7C"/>
  <path d="M132 560C246 486 374 470 478 520C594 576 704 602 796 580V726H132V560Z" fill="#0F8A7A"/>
  <rect x="214" y="254" width="198" height="244" rx="22" fill="#FFF6ED"/>
  <rect x="440" y="214" width="238" height="284" rx="22" fill="#F0D7BD"/>
  <rect x="264" y="294" width="98" height="116" rx="12" fill="#24404E" fill-opacity="0.14"/>
  <rect x="500" y="258" width="118" height="96" rx="12" fill="#FF8953"/>
  <rect x="874" y="164" width="550" height="500" rx="34" fill="#FFF4E8"/>
  <path d="M912 500C1012 448 1100 444 1188 490C1270 532 1350 540 1424 500V664H874V500Z" fill="#FFD8B8"/>
  <path d="M952 468V292H1084V468" stroke="#24404E" stroke-width="16"/>
  <path d="M1084 468V232H1236V468" stroke="#24404E" stroke-width="16"/>
  <path d="M1236 468V318H1346V468" stroke="#24404E" stroke-width="16"/>
  <circle cx="1224" cy="380" r="54" fill="#0F8A7A"/>
  <path d="M1214 486C1248 452 1294 450 1332 472" stroke="#FF8953" stroke-width="18" stroke-linecap="round"/>
  <path d="M924 220C988 174 1054 174 1124 212" stroke="#FF8953" stroke-width="14" stroke-linecap="round" stroke-dasharray="10 18"/>
  <circle cx="920" cy="222" r="12" fill="#FF8953"/>
  <circle cx="1124" cy="212" r="12" fill="#0F8A7A"/>
  <text x="138" y="126" fill="#13222C" font-family="Pretendard, Arial, sans-serif" font-size="58" font-weight="800">At Home Hotel Nanshi</text>
  <text x="138" y="786" fill="#617684" font-family="Pretendard, Arial, sans-serif" font-size="30" font-weight="600">닝샤 야시장까지 짧게 걷고 바로 복귀할 수 있는 여행 베이스캠프</text>
</svg>
