<svg width="1600" height="900" viewBox="0 0 1600 900" fill="none" xmlns="http://www.w3.org/2000/svg">
  <rect width="1600" height="900" rx="48" fill="#1D2430"/>
  <circle cx="1324" cy="140" r="168" fill="#FF9E72" fill-opacity="0.22"/>
  <rect x="0" y="586" width="1600" height="314" fill="#101723"/>
  <rect x="188" y="214" width="220" height="396" rx="24" fill="#2F4356"/>
  <rect x="244" y="282" width="108" height="120" rx="14" fill="#FFD7B6"/>
  <rect x="452" y="174" width="288" height="436" rx="24" fill="#30445B"/>
  <rect x="516" y="242" width="160" height="114" rx="14" fill="#FF8953"/>
  <rect x="790" y="234" width="232" height="376" rx="24" fill="#35516A"/>
  <rect x="1058" y="184" width="364" height="426" rx="24" fill="#274056"/>
  <rect x="1118" y="258" width="244" height="86" rx="14" fill="#FFCA6B"/>
  <circle cx="1184" cy="446" r="34" fill="#FFCA6B"/>
  <circle cx="1260" cy="446" r="34" fill="#FF8953"/>
  <circle cx="1336" cy="446" r="34" fill="#0F8A7A"/>
  <text x="118" y="120" fill="#FFF7EE" font-family="Pretendard, Arial, sans-serif" font-size="62" font-weight="800">Ningxia Night Market</text>
  <text x="118" y="182" fill="#B8C5CF" font-family="Pretendard, Arial, sans-serif" font-size="30" font-weight="600">짧게, 적게, 숙소 복귀를 쉽게 가져가는 첫날 야시장</text>
</svg>
