<svg width="1600" height="900" viewBox="0 0 1600 900" fill="none" xmlns="http://www.w3.org/2000/svg">
  <rect width="1600" height="900" rx="48" fill="#161E29"/>
  <rect x="94" y="94" width="1412" height="712" rx="40" fill="#1E2A36" stroke="#334657" stroke-width="4"/>
  <circle cx="1308" cy="188" r="144" fill="#FF9B71" fill-opacity="0.22"/>
  <rect x="150" y="576" width="1300" height="156" rx="24" fill="#10161F"/>
  <rect x="170" y="254" width="246" height="322" rx="26" fill="#304153"/>
  <rect x="206" y="320" width="172" height="80" rx="14" fill="#FFD36B"/>
  <rect x="454" y="220" width="310" height="356" rx="26" fill="#35495F"/>
  <rect x="510" y="286" width="196" height="88" rx="16" fill="#FF8953"/>
  <rect x="806" y="256" width="244" height="320" rx="26" fill="#3D576E"/>
  <rect x="1092" y="194" width="322" height="382" rx="26" fill="#294156"/>
  <rect x="1146" y="262" width="214" height="70" rx="14" fill="#FFE29D"/>
  <circle cx="1164" cy="454" r="34" fill="#FFD36B"/>
  <circle cx="1240" cy="454" r="34" fill="#FF8953"/>
  <circle cx="1316" cy="454" r="34" fill="#0F8A7A"/>
  <path d="M176 188H626" stroke="#88D6C7" stroke-width="12" stroke-linecap="round" stroke-dasharray="10 18"/>
  <circle cx="176" cy="188" r="10" fill="#88D6C7"/>
  <circle cx="626" cy="188" r="10" fill="#FF8953"/>
  <text x="148" y="168" fill="#FFF7EE" font-family="Pretendard, Arial, sans-serif" font-size="58" font-weight="800">Ningxia Night Market</text>
  <text x="148" y="770" fill="#B8C5CF" font-family="Pretendard, Arial, sans-serif" font-size="30" font-weight="600">짧게 둘러도 타이베이 밤 분위기가 확실히 남는 푸드 스트리트</text>
</svg>
