<svg width="1600" height="900" viewBox="0 0 1600 900" fill="none" xmlns="http://www.w3.org/2000/svg">
  <rect width="1600" height="900" rx="48" fill="#EEF4EF"/>
  <rect x="96" y="96" width="1408" height="708" rx="40" fill="#FFFDF9" stroke="#DBE8E3" stroke-width="4"/>
  <ellipse cx="826" cy="598" rx="484" ry="188" fill="#78CBB9"/>
  <ellipse cx="826" cy="614" rx="404" ry="144" fill="#97E7D6"/>
  <ellipse cx="826" cy="642" rx="322" ry="102" fill="#B6F3E2"/>
  <path d="M288 520C344 488 368 430 354 370C348 342 370 324 392 338C424 358 456 404 452 458" stroke="#D6ECE4" stroke-width="28" stroke-linecap="round"/>
  <path d="M612 468C668 436 692 378 678 318C672 290 694 272 716 286C748 306 780 352 776 406" stroke="#D6ECE4" stroke-width="28" stroke-linecap="round"/>
  <path d="M1046 474C1102 442 1126 384 1112 324C1106 296 1128 278 1150 292C1182 312 1214 358 1210 412" stroke="#D6ECE4" stroke-width="28" stroke-linecap="round"/>
  <path d="M236 736C354 660 452 658 540 700" stroke="#8CAEA5" stroke-width="18" stroke-linecap="round"/>
  <circle cx="238" cy="736" r="18" fill="#FF8953"/>
  <circle cx="540" cy="700" r="18" fill="#24404E"/>
  <text x="146" y="174" fill="#13222C" font-family="Pretendard, Arial, sans-serif" font-size="58" font-weight="800">Thermal Valley</text>
  <text x="146" y="758" fill="#617684" font-family="Pretendard, Arial, sans-serif" font-size="30" font-weight="600">증기와 에메랄드 톤이 강렬해서 짧게 보고 카페로 빠지는 운영이 좋은 지점</text>
</svg>
